<?xml version="1.0" standalone="no"?><!DOCTYPE svg PUBLIC "-//W3C//DTD SVG 1.1//EN" "http://www.w3.org/Graphics/SVG/1.1/DTD/svg11.dtd"><svg t="1592899932985" class="icon" viewBox="0 0 1024 1024" version="1.1" xmlns="http://www.w3.org/2000/svg" p-id="11114" xmlns:xlink="http://www.w3.org/1999/xlink" width="200" height="200"><defs><style type="text/css"></style></defs><path d="M182.857143 109.714286h658.285714a73.142857 73.142857 0 0 1 73.142857 73.142857v658.285714a73.142857 73.142857 0 0 1-73.142857 73.142857H182.857143a73.142857 73.142857 0 0 1-73.142857-73.142857V182.857143a73.142857 73.142857 0 0 1 73.142857-73.142857z m-15.689143 172.397714V820.297143a36.571429 36.571429 0 0 0 36.571429 36.571428H820.297143a36.571429 36.571429 0 0 0 36.571428-36.571428V282.112H167.131429z m110.153143 267.446857l136.118857-136.777143v78.445715l-79.798857 79.433142 79.798857 79.469715v77.421714l-136.118857-135.753143v-42.24z m254.134857-138.130286h50.285714l-76.105143 314.806858h-49.298285l75.117714-314.806858z m92.16 238.701715l79.798857-79.469715-79.762286-79.433142v-78.445715l136.082286 136.777143v42.24l-136.082286 135.753143v-77.421714z" p-id="11115" fill="#e6e6e6"></path></svg>