<?xml version="1.0" standalone="no"?><!DOCTYPE svg PUBLIC "-//W3C//DTD SVG 1.1//EN" "http://www.w3.org/Graphics/SVG/1.1/DTD/svg11.dtd"><svg t="1586250922273" class="icon" viewBox="0 0 1024 1024" version="1.1" xmlns="http://www.w3.org/2000/svg" p-id="3231" width="48" height="48" xmlns:xlink="http://www.w3.org/1999/xlink"><defs><style type="text/css"></style></defs><path d="M740.266667 262.4l-213.333333-213.333333C522.666667 44.8 518.4 42.666667 512 42.666667c-6.4 0-10.666667 2.133333-14.933333 6.4l-213.333333 213.333333C279.466667 266.666667 277.333333 270.933333 277.333333 277.333333c0 12.8 8.533333 21.333333 21.333333 21.333333 6.4 0 10.666667-2.133333 14.933333-6.4L490.666667 115.2 490.666667 960c0 12.8 8.533333 21.333333 21.333333 21.333333 12.8 0 21.333333-8.533333 21.333333-21.333333L533.333333 115.2l177.066667 177.066667c4.266667 4.266667 8.533333 6.4 14.933333 6.4 12.8 0 21.333333-8.533333 21.333333-21.333333C746.666667 270.933333 744.533333 266.666667 740.266667 262.4z" p-id="3232" fill="#1296db"></path></svg>