<?xml version="1.0" standalone="no"?><!DOCTYPE svg PUBLIC "-//W3C//DTD SVG 1.1//EN" "http://www.w3.org/Graphics/SVG/1.1/DTD/svg11.dtd"><svg t="1592900370381" class="icon" viewBox="0 0 1024 1024" version="1.1" xmlns="http://www.w3.org/2000/svg" p-id="2452" xmlns:xlink="http://www.w3.org/1999/xlink" width="200" height="200"><defs><style type="text/css"></style></defs><path d="M970.24 503.296l-431.616-427.52-3.584-3.584a28.16 28.16 0 0 0-39.424 0L344.576 221.696V140.288c0-15.36-12.8-27.648-28.16-27.648H213.504c-15.36 0-28.16 12.288-28.16 27.648v239.104L59.904 503.808a33.792 33.792 0 0 0-9.728 23.552c0 8.704 3.584 17.408 9.728 23.552l65.024 64.512c3.072 3.072 6.656 5.12 10.752 7.168v311.808H56.832c-7.168 0-12.8 5.632-12.8 12.8s5.632 12.8 12.8 12.8h448.512c7.168 0 12.8-5.632 12.8-12.8s-6.144-12.8-13.312-12.8h-34.816v-289.792c0-18.432-14.848-33.28-33.28-33.28h-133.12c-18.432 0-33.28 14.848-33.28 33.28v289.792H161.28v-311.808c3.584-1.536 7.68-4.096 10.752-7.168l343.04-339.968 343.04 339.968c6.656 6.656 14.848 9.728 23.552 9.728 8.704 0 16.896-3.072 23.552-9.728l65.024-64.512a33.792 33.792 0 0 0 9.728-23.552c0-9.216-3.584-17.408-9.728-24.064zM294.912 644.608c0-4.096 3.584-7.68 7.68-7.68h133.12c4.096 0 7.68 3.584 7.68 7.68v289.792h-148.48v-289.792zM210.944 140.288c0-1.024 1.024-2.048 2.56-2.048h102.912c1.536 0 2.56 1.024 2.56 2.048v107.008l-107.52 107.008V140.288z m741.376 392.704l-65.024 64.512c-3.072 3.072-7.68 3.072-10.752 0l-352.256-348.672c-1.536-1.536-3.584-1.536-5.12-2.048-1.536-0.512-2.56-1.536-3.584-1.536-1.536 0-2.56 1.024-3.584 1.536-2.048 0.512-3.584 0.512-5.12 2.048l-352.256 349.184c-1.536 1.536-3.584 2.048-5.12 2.048-2.048 0-3.584-0.512-5.12-2.048l-66.56-65.536a7.68 7.68 0 0 1-2.048-5.632c0-2.048 1.024-4.096 2.048-5.632l129.024-128 222.208-220.672 79.872-79.36c3.072-3.072 7.68-3.072 10.752 0l79.872 79.36 351.744 348.672c1.536 1.536 2.048 3.584 2.048 5.632 1.024 2.56 0 4.608-1.024 6.144z" fill="#e6e6e6" p-id="2453"></path><path d="M621.568 782.848c-43.52 0-78.848-35.328-78.848-78.336s35.328-78.336 78.848-78.336 78.848 35.328 78.848 78.336-35.328 78.336-78.848 78.336z m0-131.072c-29.184 0-53.248 23.552-53.248 52.736s24.064 52.736 53.248 52.736 53.248-23.552 53.248-52.736-23.552-52.736-53.248-52.736zM820.224 960c-43.52 0-78.848-35.328-78.848-78.336 0-43.008 35.328-78.336 78.848-78.336s78.848 35.328 78.848 78.336c0 43.008-35.328 78.336-78.848 78.336z m0-131.072c-29.184 0-53.248 23.552-53.248 52.736 0 29.184 24.064 52.736 53.248 52.736s53.248-23.552 53.248-52.736c0-29.184-23.552-52.736-53.248-52.736zM621.568 936.448a13.824 13.824 0 0 1-7.68-2.56 12.4416 12.4416 0 0 1-2.048-17.92l189.952-244.736c4.608-5.632 12.288-6.656 17.92-2.048 5.632 4.096 6.656 12.288 2.048 17.92l-189.952 244.736c-2.56 3.072-6.144 4.608-10.24 4.608z" fill="#e6e6e6" p-id="2454"></path></svg>