<?xml version="1.0" standalone="no"?><!DOCTYPE svg PUBLIC "-//W3C//DTD SVG 1.1//EN" "http://www.w3.org/Graphics/SVG/1.1/DTD/svg11.dtd"><svg t="1590992417453" class="icon" viewBox="0 0 1068 1024" version="1.1" xmlns="http://www.w3.org/2000/svg" p-id="1788" xmlns:xlink="http://www.w3.org/1999/xlink" width="208.59375" height="200"><defs><style type="text/css"></style></defs><path d="M939.903382 0H128.618357C56.888889 0 0 56.888889 0 128.618357v576.309179c0 71.729469 56.888889 128.618357 128.618357 128.618358H939.903382c71.729469 0 128.618357-56.888889 128.618357-128.618358V128.618357C1068.521739 56.888889 1011.63285 0 939.903382 0z m56.888889 704.927536c0 32.154589-24.7343 56.888889-56.888889 56.888889H128.618357c-32.154589 0-56.888889-24.7343-56.888888-56.888889V128.618357c0-32.154589 24.7343-56.888889 56.888888-56.888888H939.903382c32.154589 0 56.888889 24.7343 56.888889 56.888888v576.309179zM905.275362 949.797101h-202.821256v-19.787439c0-17.31401-14.84058-32.154589-32.154589-32.15459H378.434783c-17.31401 0-32.154589 14.84058-32.15459 32.15459v19.787439H143.458937c-19.78744 0-37.101449 17.31401-37.101449 37.10145s17.31401 37.101449 37.101449 37.101449h761.816425c19.78744 0 37.101449-17.31401 37.10145-37.101449s-17.31401-37.101449-37.10145-37.10145z" fill="#e6e6e6" p-id="1789"></path><path d="M818.705314 403.169082c9.89372-14.84058-2.47343-34.628019-19.78744-34.628019h-212.714975c-17.31401 0-29.681159 19.78744-19.78744 34.628019l66.782609 113.777778 9.893719 19.78744-19.787439 34.628019L568.888889 667.826087c0 2.47343-2.47343 2.47343-2.47343 4.94686v2.47343c-2.47343 12.36715 7.42029 27.207729 22.26087 27.207729h212.714975c14.84058 0 24.7343-12.36715 22.26087-27.207729v-2.47343c0-2.47343 0-2.47343-2.47343-4.94686L742.028986 536.7343l9.893719-19.78744 66.782609-113.777778z m-108.830918 113.777778h-32.154589l-64.309179-111.304348h160.772947l-64.309179 111.304348z" fill="#e6e6e6" p-id="1790"></path><path d="M601.043478 536.7343L536.7343 420.483092c-4.94686-9.89372-7.42029-19.78744-7.42029-29.68116-7.42029-4.94686-17.31401-7.42029-24.7343-9.893719 44.521739-24.7343 74.202899-71.729469 74.202899-128.618358 0-81.623188-64.309179-145.932367-145.932367-145.932367-81.623188 0-145.932367 64.309179-145.932368 145.932367 0 54.415459 29.681159 101.410628 74.202899 128.618358-76.676329 27.207729-133.565217 101.410628-133.565217 187.980676 0 4.94686 2.47343 7.42029 7.420289 7.42029h343.806764l22.260869-39.574879z" fill="#e6e6e6" p-id="1791"></path></svg>