<?xml version="1.0" standalone="no"?><!DOCTYPE svg PUBLIC "-//W3C//DTD SVG 1.1//EN" "http://www.w3.org/Graphics/SVG/1.1/DTD/svg11.dtd"><svg t="1591326145836" class="icon" viewBox="0 0 1024 1024" version="1.1" xmlns="http://www.w3.org/2000/svg" p-id="2759" xmlns:xlink="http://www.w3.org/1999/xlink" width="200" height="200"><defs><style type="text/css"></style></defs><path d="M244.31 495.86c-11.977 0-23.92-0.318-35.811-0.846v-92.06c11.843 0.687 23.807 1.11 35.811 1.11 160.471 0 311.798-68.12 394.907-177.726l33.446-44.1H614.96L723.82 63.225l107.398 119.013h-39.036l-9.05 18.734C698.32 377.35 481.772 495.86 244.31 495.86z m425.559-3.779v344.01h136.318v-440.35H669.87v96.34z m-87.687 344.011V501.647H451.696v334.444h130.486zM368.461 617.964H233.529v218.128H368.46V617.964zM170.463 872.61V146.515H78.547v812.79h864.198V872.61H170.463z" p-id="2760" fill="#e6e6e6"></path></svg>