<?xml version="1.0" standalone="no"?><!DOCTYPE svg PUBLIC "-//W3C//DTD SVG 1.1//EN" "http://www.w3.org/Graphics/SVG/1.1/DTD/svg11.dtd"><svg t="1592900725962" class="icon" viewBox="0 0 1024 1024" version="1.1" xmlns="http://www.w3.org/2000/svg" p-id="4794" xmlns:xlink="http://www.w3.org/1999/xlink" width="200" height="200"><defs><style type="text/css"></style></defs><path d="M823.985585 528.510022 191.85833 528.510022c-30.803802 0-55.77452 24.963555-55.77452 55.773258l0 316.03891c0 30.7964 24.970718 55.773258 55.77452 55.773258l632.126232 0c30.797662 0 55.77452-24.976858 55.77452-55.773258L879.759081 584.28328C879.760105 553.472554 854.782224 528.510022 823.985585 528.510022zM298.967062 833.867662 275.689985 833.867662c1.342633-16.85283 2.024183-30.698163 2.024183-41.49302l0-94.116541c0-6.732331-0.682573-18.215874-2.024183-34.407648l23.277077 0c-1.3631 12.143575-2.024183 23.276123-2.024183 33.396621l0 95.127568C296.942879 803.169499 297.602939 817.014832 298.967062 833.867662zM344.5081 864.22711l-22.264985 0c1.342633-12.143575 2.024183-23.612791 2.024183-34.407648L324.267298 666.886603c0-9.445116-1.012091-21.589714-3.036274-36.432771l24.289168 0c-1.364123 14.843056-2.024183 27.324322-2.024183 37.44482L343.496009 829.819462C343.497032 836.56612 343.82655 848.035336 344.5081 864.22711zM499.344765 857.142761l-21.252894 0L478.091871 838.926888l-89.052777 0 0 21.252023-21.252894 0c0.661083-16.866133 1.012091-35.756365 1.012091-56.671721 0-21.589714-0.351008-40.128953-1.012091-55.660694l131.558565 0c-0.67541 17.554818-1.012091 36.432771-1.012091 56.672744C498.331651 824.098157 498.669356 841.61102 499.344765 857.142761zM407.255714 702.307324c4.708425-3.372817 9.43834-7.421017 14.168255-12.143575 4.708425 5.411243 11.800227 12.143575 21.24573 20.239973 9.445503 8.095375 16.192437 15.179724 20.240803 21.252023-8.09673 6.072299-13.156164 10.471492-15.180346 13.155624C436.26047 731.318054 422.766602 717.149357 407.255714 702.307324zM500.355833 691.175799c-11.469686-1.349741-22.601667-2.025123-33.396966-2.025123l-69.824066 0c-12.145096 18.216897-22.617017 32.383548-31.373807 42.504046-6.754098-6.072299-12.496104-10.120498-17.204529-12.143575 13.486705-13.494339 24.794702-28.996404 33.903523-46.552246 9.107798-17.541515 15.005354-31.709189 17.711086-42.504046 9.43834 4.048199 18.547161 7.436366 27.325442 10.120498-6.072548 4.722558-10.802463 10.120498-14.168255 16.191774-3.388306 6.072299-6.423556 11.483542-9.108822 16.191774l60.716268 0c10.120913 0 21.92728-0.661056 35.421149-2.0241L500.356857 691.175799zM618.764375 824.759213 597.512505 824.759213l0-19.227923-40.481605 0 0 33.396621-21.253917 0c0.674386-31.020504 1.012091-62.068637 1.012091-93.103468 0-31.709189-0.337705-61.73197-1.012091-90.068342l82.987393 0c-0.674386 24.287149-1.011068 53.635571-1.011068 88.043219C617.753307 778.206968 618.089989 805.193599 618.764375 824.759213zM641.030384 739.751121c6.072548-2.685155 12.480754-5.721305 19.228711-9.108448 8.770093 14.168698 17.204529 29.348422 25.301259 45.540196-6.746934 2.025123-13.831573 5.060249-21.253917 9.108448C658.909299 769.099543 651.150273 753.918795 641.030384 739.751121zM766.523564 704.331423c-11.469686-0.661056-22.264985-1.01205-32.384875-1.01205l0 135.608537c0 10.120498-4.048365 16.529465-12.144072 19.227923-8.09673 2.685155-18.554325 4.709255-31.373807 6.072299 0-8.095375-3.71066-15.854083-11.131981-23.276123 12.818459 1.349741 21.758428 1.673106 26.818884 1.01205 5.059433-0.674359 7.590173-5.059226 7.590173-13.155624l0-125.488039c-33.734671 0-62.071181 0.350994-85.011576 1.01205l0-19.228947c21.590599 0.675382 49.928132 1.01205 85.011576 1.01205 0-20.239973-0.337705-39.116903-1.012091-56.671721l22.264985 0c-0.674386 17.554818-1.011068 36.431747-1.011068 56.671721 10.120913 0 20.915189-0.336668 32.384875-1.01205L766.524588 704.331423zM389.039094 822.735114l33.396966 0 0-58.69582-33.396966 0L389.039094 822.735114zM442.669699 822.735114l34.409057 0 0-58.69582L442.669699 764.039293 442.669699 822.735114zM935.352468 385.662617 552.911923 78.80174c-12.438796-9.979282-28.744826-14.983249-45.021178-14.983249-16.277375 0-32.582381 5.003967-45.035504 14.983249L80.429023 385.662617c-18.18899 14.659885-23.635248 36.572964-13.795756 55.70265 3.499851 6.746658 9.080168 12.257162 15.434136 17.105586 1.321142 1.095961 2.017019 2.248204 3.851882 3.316535l61.249432 44.261063c6.395926 3.921309 11.624211 2.333138 16.305006-1.152243l47.172255-37.008892c4.652141-3.922333 12.777525-0.801249 16.888314 1.925862l61.727336 36.235272c7.006865 3.921309 12.236174 2.727111 16.888314-1.152243l46.581783-37.008892c5.271266-4.328585 12.819482-0.801249 17.464459 1.925862l61.734499 36.235272c6.437883 3.921309 11.652865 2.333138 16.332636-1.152243l49.168807-38.217417c4.946865-1.728364 10.823953 0.843204 14.815011 3.134387l61.734499 36.235272c6.381599 3.921309 11.624211 2.333138 16.276352-1.152243l47.200909-37.008892c4.638837-3.922333 12.763198-0.801249 16.881151 1.925862l61.692542 36.235272c6.999701 3.921309 12.270967 2.727111 16.923108-1.152243l46.582807-37.008892c5.228286-4.328585 12.819482-0.801249 17.471623 1.925862l61.721196 36.235272c6.395926 3.921309 11.666169 2.333138 16.305006-1.152243l54.90365-43.10882 0.561818-0.983397c7.843963-5.214768 14.576571-11.567453 18.65359-19.438725C959.036838 422.23558 953.582392 400.323525 935.352468 385.662617zM557.030899 788.327466l40.481605 0 0-50.600445-40.481605 0L557.030899 788.327466zM557.030899 720.523197l40.481605 0 0-47.564295-40.481605 0L557.030899 720.523197z" p-id="4795" fill="#e6e6e6"></path></svg>